<?xml version="1.0" encoding="UTF-8"?>
<svg width="1920px" height="1080px" viewBox="0 0 1920 1080" version="1.1" xmlns="http://www.w3.org/2000/svg" xmlns:xlink="http://www.w3.org/1999/xlink">
    <!-- Generator: Sketch 52 (66869) - http://www.bohemiancoding.com/sketch -->
    <title>分组 3</title>
    <desc>Created with Sketch.</desc>
    <defs>
        <filter x="-11.6%" y="-17.7%" width="123.2%" height="135.0%" filterUnits="objectBoundingBox" id="filter-1">
            <feOffset dx="0" dy="6" in="SourceAlpha" result="shadowOffsetOuter1"></feOffset>
            <feGaussianBlur stdDeviation="9.5" in="shadowOffsetOuter1" result="shadowBlurOuter1"></feGaussianBlur>
            <feColorMatrix values="0 0 0 0 0   0 0 0 0 0   0 0 0 0 0  0 0 0 0.078294837 0" type="matrix" in="shadowBlurOuter1" result="shadowMatrixOuter1"></feColorMatrix>
            <feMerge>
                <feMergeNode in="shadowMatrixOuter1"></feMergeNode>
                <feMergeNode in="SourceGraphic"></feMergeNode>
            </feMerge>
        </filter>
    </defs>
    <g id="Page-2" stroke="none" stroke-width="1" fill="none" fill-rule="evenodd">
        <g id="登录(规则服务）">
            <g id="分组-3" transform="translate(-293.000000, -417.000000)">
                <rect id="矩形" fill="#F2F7FB" fill-rule="nonzero" x="293" y="417" width="1920" height="1080"></rect>
                <circle id="椭圆形" stroke="#3AA0FF" stroke-width="140" opacity="0.600000024" fill-rule="nonzero" cx="2239" cy="505" r="505"></circle>
                <rect id="矩形" stroke="#8DC63E" stroke-width="100" opacity="0.699999988" fill-rule="nonzero" transform="translate(289.207565, 1477.207565) rotate(49.000000) translate(-289.207565, -1477.207565) " x="134.207565" y="1322.20756" width="310" height="310" rx="155"></rect>
                <g id="分组-2" filter="url(#filter-1)" transform="translate(705.000000, 796.000000)">
                    <path d="M105.529849,63.5017851 L105.502005,70.433923 L123.470151,70.4982149 L123.497995,63.566077 L105.529849,63.5017851 Z" id="矩形" stroke="#676D8D" fill="#F2F7FB" fill-rule="nonzero" transform="translate(114.500000, 67.000000) rotate(-315.000000) translate(-114.500000, -67.000000) "></path>
                    <path d="M100.500664,66.5157716 L100.509947,73.4992486 L110.499336,73.4842284 L110.490053,66.5007514 L100.500664,66.5157716 Z" id="矩形" stroke="#676D8D" fill="#F2F7FB" fill-rule="nonzero" transform="translate(105.500000, 70.000000) rotate(-315.000000) translate(-105.500000, -70.000000) "></path>
                    <path d="M103.313487,46.1780174 L66.0683119,82.2734918 L65.7380639,82.0725807 C60.7143845,79.0163551 54.9498443,77.3766681 48.9442165,77.3766681 C31.0261696,77.3766681 16.5,91.954625 16.5,109.938334 C16.5,127.922043 31.0261696,142.5 48.9442165,142.5 C66.8622634,142.5 81.388433,127.922043 81.388433,109.938334 C81.388433,103.473296 79.5080215,97.2901123 76.0337306,92.0124965 L75.8060666,91.6666638 L112.715034,55.897019 C114.693036,53.9800746 114.748118,50.8244194 112.838221,48.8396118 L110.396039,46.301643 C110.38987,46.2952397 110.38987,46.2952397 110.383686,46.288851 C108.46191,44.3058636 105.296474,44.2562417 103.313487,46.1780174 Z" id="合并形状" stroke="#676D8D" fill="#F2F7FB" fill-rule="nonzero"></path>
                    <circle id="椭圆形" stroke="#676D8D" fill="#F2F7FB" fill-rule="nonzero" cx="48.5" cy="109.5" r="18"></circle>
                    <path d="M189.529101,35.7175289 C189.03262,42.3891309 185.945236,47.3412717 180.26695,50.5739514 C171.749521,55.4229709 161.119982,57.4460027 157.764309,64 C148.754526,42.2228623 152.52354,24.5062714 169.071351,10.8502275 C193.893068,-9.63383835 236.51644,0.884536554 244.172147,25.729244 C249.275951,42.2923823 249.275951,55.0493009 244.172147,64 C241.815865,58.1962393 237.545715,55.2943589 231.361697,55.2943589 C217.293411,58.4007439 203.349212,51.8751339 189.529101,35.7175289 Z" id="路径" stroke="#676D8D"></path>
                    <path d="M201,128.980526 C183.559789,129.504719 170.318649,119.446336 161.276581,98.8053769 C141.872165,79.2528788 139.817739,66.3177532 155.113304,60" id="路径-2" stroke="#676D8D"></path>
                    <path d="M256,128.980526 C238.559789,129.504719 225.318649,119.446336 216.276581,98.8053769 C196.872165,79.2528788 194.817739,66.3177532 210.113304,60" id="路径-2" stroke="#676D8D" transform="translate(228.000000, 94.500000) scale(-1, 1) translate(-228.000000, -94.500000) "></path>
                    <path d="M297.498632,185.5 C297.389946,165.693637 290.802947,153.301958 277.736731,148.207167 L236.633584,130.657151 C233.207049,138.342188 221.504289,143.281164 201.55745,145.588349 L201.44255,145.588349 C181.495708,143.281164 169.792948,138.342187 166.366415,130.657149 L125.248562,148.213172 C112.19693,153.302008 105.610053,165.693637 105.501368,185.5 L297.498632,185.5 Z" id="合并形状" stroke="#676D8D" fill="#DBE7FF" fill-rule="nonzero"></path>
                    <g id="盾牌" transform="translate(206.000000, 131.000000)" fill="#F2F7FB" fill-rule="nonzero" stroke="#676D8D">
                        <path d="M0.891543304,43.1645475 C1.91891094,58.2112851 4.65794701,71.3457374 9.02935189,82.2030718 C12.7295848,91.3932593 17.7092395,99.2065595 23.8282551,105.427819 C27.2271365,108.883444 30.9228375,111.823423 34.9344556,114.346897 C41.4556101,118.448973 46.8496452,120.633849 57.2011949,123.99867 C58.7043085,124.487125 59.4323898,124.725749 60.2075494,124.98696 C75.2013364,119.902863 85.4988217,114.671836 95.3876924,104.888909 C101.98998,98.3574813 107.292646,90.4034574 111.148638,81.2454342 C115.699267,70.4369917 118.378667,57.6256043 119.109141,43.1672414 C119.388037,37.6438822 119.067542,32.5828976 118.411681,27.720371 C111.792196,27.2133515 101.090685,24.4010842 90.8308398,20.2199235 C84.0603654,17.4607262 78.0459321,14.352653 72.9546013,10.9810063 C68.0769022,7.75089731 64.1555547,4.33740092 61.2614107,0.800029605 C53.9208212,7.52440621 41.8389231,13.9566325 25.2776637,19.967465 C16.6572229,23.0962202 8.31062142,25.577296 1.47900981,27.3242058 C0.915995163,30.4674913 0.62822082,35.6023021 0.891543304,43.1645475 Z" id="路径"></path>
                        <path d="M11.4240663,46.855698 C12.2693027,59.0580315 14.5221576,69.7080911 18.1167585,78.509918 C21.158502,85.9578869 25.2514019,92.2890919 30.2802224,97.3296994 C33.0734781,100.129462 36.110737,102.511503 39.407855,104.556222 C44.7690498,107.880985 49.2049738,109.652388 57.7211581,112.381501 C58.9419844,112.772618 59.542022,112.966452 60.1708885,113.175223 C72.4897142,109.055169 80.951524,104.814646 89.075354,96.8914043 C94.5021492,91.5987067 98.8608132,85.1530667 102.030581,77.7312029 C105.772333,68.969539 107.975878,58.5822889 108.57671,46.8579903 C108.804508,42.4103181 108.545794,38.3319677 108.013495,34.413786 C102.548874,33.9871765 93.7699912,31.7075315 85.3522234,28.3255364 C79.7730705,26.0839686 74.8163626,23.558687 70.6196335,20.8187432 C66.6288361,18.2132988 63.4131745,15.460188 61.0297901,12.6060052 C54.9697946,18.0516746 45.0362333,23.2571877 31.4410509,28.121778 C24.364356,30.6539462 17.5120228,32.6635747 11.8954825,34.0813399 C11.4404966,36.6297761 11.20929,40.7728022 11.4240663,46.855698 Z" id="路径"></path>
                    </g>
                    <circle id="椭圆形" stroke="#676D8D" fill="#F2F7FB" fill-rule="nonzero" cx="382" cy="156" r="35.5"></circle>
                    <circle id="椭圆形" stroke="#676D8D" fill="#F2F7FB" fill-rule="nonzero" cx="52.5" cy="222.5" r="52"></circle>
                    <g id="设置" transform="translate(325.000000, 186.000000)">
                        <rect id="矩形" fill="#000000" opacity="0" x="0" y="0" width="72" height="72"></rect>
                        <path d="M10.4291178,42.4604744 C13.6040824,42.9893101 16.36387,44.9200488 17.897351,47.7015234 C19.4594725,50.433882 19.7574384,53.6833061 18.7283936,56.6371354 C21.4539214,59.0988245 24.6893541,60.9582477 28.2149226,62.0888904 C30.1569773,59.8159921 33.0313784,58.4963059 36.0681977,58.4963059 C39.1038468,58.4963059 41.977203,59.8149753 43.9192275,62.0862635 C47.4594219,60.9138518 50.6986022,59.0067557 53.4147247,56.4958423 C52.4688734,53.5965837 52.7893653,50.4373557 54.3070841,47.7779854 C55.7981151,45.0790257 58.435167,43.1766751 61.49439,42.5754359 C62.3159894,38.9221991 62.38524,35.1455052 61.6981926,31.4659544 C58.5967706,30.9372126 55.893156,29.0694084 54.3474307,26.3693081 C52.6579236,23.4400487 52.4313206,19.9213478 53.7173074,16.8154746 C51.0948705,14.357599 47.9735908,12.4659096 44.5558413,11.2631127 C42.6371818,13.9452482 39.498546,15.55208 36.1398239,15.55208 C32.7801734,15.55208 29.6407309,13.9443598 27.7222158,11.2608883 C24.2992658,12.4388305 21.1676641,14.3072592 18.5305822,16.7448525 C19.8601869,19.8601016 19.6588586,23.4090802 17.9708989,26.3642672 C16.3836277,29.1915482 13.5376222,31.1173762 10.2934733,31.5811631 C9.98496886,33.2471609 9.83104195,34.9372635 9.83370382,36.6308404 L9.83369779,36.6342047 C9.82360331,38.5916046 10.0232304,40.5443463 10.4291178,42.4604744 Z" id="路径" stroke="#676D8D" fill="#F2F7FB" fill-rule="nonzero"></path>
                        <path d="M36.6674467,47.5 C42.650173,47.4995784 47.5,42.6494914 47.5,36.6666667 C47.5,30.6835819 42.6497515,25.8333333 36.6666667,25.8333333 C30.6835819,25.8333333 25.8333333,30.6835819 25.8333309,36.6651066 C25.8519767,42.6410536 30.6915986,47.4809346 36.6674467,47.5 Z M36.6674467,47.5 C36.6677067,47.5000008 36.6679667,47.5000016 36.6682267,47.5000024 L36.6666667,47.5 C36.6669267,47.5 36.6671867,47.5 36.6674467,47.5 Z" id="路径" stroke="#676D8D" fill="#DBE7FF" fill-rule="nonzero"></path>
                    </g>
                    <path d="M346.681818,84.5 L346.681818,85 L347.181818,85 L347.181818,84.5 L346.681818,84.5 Z M287.045455,84.5 L286.545455,84.5 L286.545455,85 L287.045455,85 L287.045455,84.5 Z" id="合并形状" stroke="#676D8D" fill="#F2F7FB" fill-rule="nonzero"></path>
                    <path d="M315,89 L315,89 C315,98.3888407 307.388841,106 298,106 L295,106" id="路径-4" stroke="#676D8D"></path>
                    <polyline id="矩形" stroke="#676D8D" transform="translate(297.000000, 106.000000) rotate(-315.000000) translate(-297.000000, -106.000000) " points="301 110 293.00027 109.99973 293 102"></polyline>
                    <polyline id="矩形" stroke="#676D8D" transform="translate(347.000000, 112.000000) scale(-1, 1) rotate(-315.000000) translate(-347.000000, -112.000000) " points="351 116 343.00027 115.99973 343 108"></polyline>
                    <path d="M327,65 L327,97 C327,104.731986 333.268014,111 341,111 L348,111" id="路径-5" stroke="#676D8D"></path>
                    <g id="分组" transform="translate(46.000000, 11.000000)" fill-rule="nonzero" stroke="#676D8D">
                        <path d="M0.823955474,51.9426335 L18.7697643,39.0083605 L18.9322051,39.0089644 C18.9660928,39.0090698 18.9660928,39.0090698 19,39.0090909 C29.2128174,39.0090909 37.5,30.3928001 37.5,19.7545455 C37.5,9.11629084 29.2128174,0.5 19,0.5 C8.78718263,0.5 0.5,9.11629084 0.5,19.7545455 C0.5,23.2355722 1.38840303,26.5800062 3.04856007,29.5130525 L3.12718555,29.6519623 L0.823955474,51.9426335 Z" id="合并形状" fill="#F2F7FB"></path>
                        <ellipse id="椭圆形" fill="#DBE7FF" cx="19" cy="19.2125" rx="11.637931" ry="11.7625"></ellipse>
                    </g>
                    <path d="M94.254781,118.467566 C95.7206311,122.227975 97.694696,125.427199 100.121994,127.9762 C104.550848,132.627048 109.629251,134.331997 113.33732,135.576955 C113.772961,135.723177 114.189138,135.862947 114.58157,136 C117.875067,134.849309 123.705759,132.726409 128.567044,127.759075 C131.184571,125.084497 133.286125,121.82836 134.813646,118.081195 C136.614203,113.663976 137.673508,108.432451 137.96213,102.531891 C138.101725,99.676387 137.821999,97.2224669 137.664344,96.0505184 C135.357378,95.8987954 131.159421,94.8773475 126.709297,93.0041721 C124.055985,91.887303 121.700123,90.6298489 119.707463,89.2668543 C117.726977,87.9122133 116.153705,86.4804203 115.017145,85 C112.168118,87.7648368 107.38148,90.4185641 100.765657,92.8986995 C96.4618837,94.5120983 92.626527,95.5662136 91.2949879,95.9157742 C91.1506436,96.6877689 90.9059674,98.6294028 91.0376698,102.531008 C91.4432116,108.669883 92.5255929,114.031534 94.254781,118.467566 Z" id="路径" stroke="#676D8D"></path>
                    <path d="M139.966583,245.462261 C137.591814,239.409262 136.107836,232.105441 135.551583,223.7354 C135.403596,219.379566 135.576628,216.449079 135.910311,214.67593 L135.968907,214.364555 L136.27549,214.284588 C139.944447,213.327597 144.460118,211.954844 149.123395,210.217922 C158.071244,206.88514 164.534828,203.325563 168.357144,199.640064 L168.758742,199.25284 L169.099845,199.694283 C170.613677,201.65343 172.717765,203.555424 175.372058,205.359264 C178.056375,207.183545 181.234906,208.869205 184.818343,210.36789 C190.359732,212.685401 196.140765,214.227323 199.57554,214.451765 L199.983556,214.478427 L200.038416,214.883616 C200.415594,217.669377 200.604126,220.567588 200.447827,223.744203 C200.052151,231.781341 198.598396,238.914745 196.123714,244.946701 C194.019384,250.075625 191.121949,254.535815 187.511341,258.201382 C182.089652,263.705702 176.459961,266.63108 168.275043,269.47235 L168.111107,269.529257 L167.947164,269.47237 C167.501195,269.317622 167.116526,269.188074 166.258556,268.901951 C160.652937,267.032013 157.715509,265.81098 154.151287,263.510116 C151.951976,262.090363 149.924695,260.435323 148.06046,258.49024 C144.708371,254.992727 141.985691,250.608643 139.966584,245.462264 Z" id="路径" stroke="#676D8D" fill="#F2F7FB" fill-rule="nonzero"></path>
                    <path d="M97,104.06232 C97.293606,108.636383 98.0772333,112.631339 99.3291387,115.936618 C100.390391,118.738491 101.819584,121.122226 103.57691,123.021483 C106.783332,126.48682 110.460017,127.757174 113.144601,128.68479 C113.459999,128.79374 113.761305,128.897882 114.045419,129 C116.42986,128.142622 120.651191,126.560854 124.170686,122.859703 C126.065735,120.86688 127.587227,118.440739 128.693129,115.648733 C129.996705,112.357472 130.763625,108.459473 130.972582,104.062978 C131.073647,101.935347 130.87113,100.106936 130.756991,99.2337196 C129.086783,99.1206711 126.047527,98.3595922 122.825706,96.963893 C120.904749,96.131716 119.199142,95.1947894 117.756487,94.1792248 C116.322645,93.1698844 115.183621,92.1030583 114.360768,91 C112.298117,93.0600745 108.832666,95.0373615 104.042912,96.8853055" id="路径" stroke="#676D8D"></path>
                    <path d="M113.5,92 L113.5,102" id="路径-6" stroke="#676D8D" stroke-linecap="round" fill-rule="nonzero"></path>
                    <path d="M113.5,122 L113.5,129" id="路径-6" stroke="#676D8D" stroke-linecap="round" fill-rule="nonzero"></path>
                    <g id="地球" transform="translate(178.000000, 240.000000)" stroke="#676D8D">
                        <path d="M21,39.5 C31.5754451,39.5 40.1875,30.7512458 40.1875,20 C40.1875,9.24875415 31.5754452,0.5 21,0.5 C10.4245549,0.5 1.8125,9.24875415 1.8125,20 C1.8125,30.7512458 10.4245549,39.5 21,39.5 Z" id="路径" fill="#F2F7FB" fill-rule="nonzero"></path>
                        <path d="M20.34375,39.5 C25.4490196,39.5 29.6875,30.9195086 29.6875,20 C29.6875,9.02239689 25.5021918,0.5 20.34375,0.5 C15.1853082,0.5 11,9.02239689 11,20 C11,30.9776031 15.1853082,39.5 20.34375,39.5 Z" id="路径" fill="#F2F7FB" fill-rule="nonzero"></path>
                        <path d="M6.5625,33.0660261 C10.9703986,30.660513 15.9496914,29.3333333 20.9289843,29.3333333 C25.9082771,29.3333333 30.88757,30.5775643 35.2954686,32.9830774" id="路径" fill-rule="nonzero"></path>
                        <path d="M6.5625,10.3993595 C10.9703986,7.99384631 15.9496914,6.66666667 20.9289843,6.66666667 C25.9082771,6.66666667 30.88757,7.91089759 35.2954686,10.3164108" id="路径" fill-rule="nonzero" transform="translate(20.928984, 8.533013) scale(1, -1) translate(-20.928984, -8.533013) "></path>
                        <path d="M1.3125,20 L40.6875,20" id="路径"></path>
                    </g>
                    <path d="M168.5,200 L168.5,270" id="路径-7" stroke="#676D8D"></path>
                    <path d="M174,208.5 L169,208.5" id="路径-8" stroke="#676D8D"></path>
                    <path d="M174,213.5 L169,213.5" id="路径-8" stroke="#676D8D"></path>
                    <path d="M174,217.5 L169,217.5" id="路径-8" stroke="#676D8D"></path>
                    <path d="M174,223.5 L169,223.5" id="路径-8" stroke="#676D8D"></path>
                    <path d="M174,226.5 L169,226.5" id="路径-8" stroke="#676D8D"></path>
                    <path d="M174,231.5 L169,231.5" id="路径-8" stroke="#676D8D"></path>
                    <path d="M174,235.5 L169,235.5" id="路径-8" stroke="#676D8D"></path>
                    <path d="M174,240.5 L169,240.5" id="路径-8" stroke="#676D8D"></path>
                    <path d="M174,246.5 L169,246.5" id="路径-8" stroke="#676D8D"></path>
                    <path d="M174,250.5 L169,250.5" id="路径-8" stroke="#676D8D"></path>
                    <path d="M174,255.5 L169,255.5" id="路径-8" stroke="#676D8D"></path>
                    <path d="M174,260.5 L169,260.5" id="路径-8" stroke="#676D8D"></path>
                    <path d="M174,265.5 L169,265.5" id="路径-8" stroke="#676D8D"></path>
                    <g id="锁" transform="translate(243.000000, 173.000000)">
                        <rect id="矩形" fill="#000000" opacity="0" x="0" y="0" width="46" height="46"></rect>
                        <path d="M33.9725847,16.1913249 L33.9725847,10.8635878 L33.9635908,10.8635878 L33.9635908,10.2721225 C33.9635908,8.22929249 33.1766226,6.30930526 31.751086,4.86703996 C30.3255494,3.42022493 28.4278319,2.62857143 26.4086964,2.62857143 L19.5958006,2.62857143 C17.5766651,2.62857143 15.6789476,3.42477467 14.248914,4.86703996 C12.8233774,6.31385499 12.0364092,8.23384223 12.0364092,10.2721225 L12.0364092,16.1913249 L7.88571429,16.1913249 L7.88571429,36.5786775 C7.88571429,38.3166754 8.54227058,40.0592231 9.85538318,41.3831953 C11.1684958,42.7071676 12.8863348,43.3714286 14.6041739,43.3714286 L31.400323,43.3714286 C33.1226591,43.3714286 34.8404982,42.7071676 36.1491138,41.3831953 C37.4577294,40.0546734 38.1142857,38.3166754 38.1142857,36.2510968 L38.1142857,16.1913249 L33.9725847,16.1913249 Z" id="路径" stroke="#676D8D"></path>
                        <path d="M22.1818703,30.5430612 L22.1818703,36.8 L23.8225282,36.8 L23.8225282,30.5430612 C25.2388602,30.1534694 26.2857143,28.7922449 26.2857143,27.1634694 C26.2857143,25.224898 24.8165997,23.6571429 23,23.6571429 C21.1877988,23.6571429 19.7142857,25.224898 19.7142857,27.1634694 C19.7186843,28.7922449 20.7655383,30.1487755 22.1818703,30.5430612 Z" id="路径" stroke="#676D8D"></path>
                        <path d="M7.78968055,16.2424856 L38.2677222,16.2424856" id="路径-9" stroke="#676D8D"></path>
                    </g>
                    <g id="锁" transform="translate(30.000000, 200.000000)">
                        <rect id="矩形" fill="#000000" opacity="0" x="0" y="0" width="46" height="46"></rect>
                        <path d="M33.9725847,16.1913249 L33.9725847,10.8635878 L33.9635908,10.8635878 L33.9635908,10.2721225 C33.9635908,8.22929249 33.1766226,6.30930526 31.751086,4.86703996 C30.3255494,3.42022493 28.4278319,2.62857143 26.4086964,2.62857143 L19.5958006,2.62857143 C17.5766651,2.62857143 15.6789476,3.42477467 14.248914,4.86703996 C12.8233774,6.31385499 12.0364092,8.23384223 12.0364092,10.2721225 L12.0364092,16.1913249 L7.88571429,16.1913249 L7.88571429,36.5786775 C7.88571429,38.3166754 8.54227058,40.0592231 9.85538318,41.3831953 C11.1684958,42.7071676 12.8863348,43.3714286 14.6041739,43.3714286 L31.400323,43.3714286 C33.1226591,43.3714286 34.8404982,42.7071676 36.1491138,41.3831953 C37.4577294,40.0546734 38.1142857,38.3166754 38.1142857,36.2510968 L38.1142857,16.1913249 L33.9725847,16.1913249 Z" id="路径" stroke="#676D8D"></path>
                        <path d="M22.1818703,30.5430612 L22.1818703,36.8 L23.8225282,36.8 L23.8225282,30.5430612 C25.2388602,30.1534694 26.2857143,28.7922449 26.2857143,27.1634694 C26.2857143,25.224898 24.8165997,23.6571429 23,23.6571429 C21.1877988,23.6571429 19.7142857,25.224898 19.7142857,27.1634694 C19.7186843,28.7922449 20.7655383,30.1487755 22.1818703,30.5430612 Z" id="路径" stroke="#676D8D"></path>
                        <path d="M7.78968055,16.2424856 L38.2677222,16.2424856" id="路径-9" stroke="#676D8D"></path>
                    </g>
                </g>
            </g>
        </g>
    </g>
</svg>